<?xml version="1.0" encoding="UTF-8" standalone="no"?>
<!DOCTYPE svg PUBLIC "-//W3C//DTD SVG 1.1//EN" "http://www.w3.org/Graphics/SVG/1.1/DTD/svg11.dtd">
<svg width="100%" height="100%" viewBox="0 0 512 512" version="1.1" xmlns="http://www.w3.org/2000/svg" xmlns:xlink="http://www.w3.org/1999/xlink" xml:space="preserve" xmlns:serif="http://www.serif.com/" style="fill-rule:evenodd;clip-rule:evenodd;stroke-linejoin:round;stroke-miterlimit:2;">
    <g transform="matrix(1.32475,0,0,1.61498,-81.1887,-100.686)">
        <path d="M423.617,180L423.617,260C423.617,282.077 400.221,303.96 376.265,303.96L127.021,303.96C103.066,303.96 76.383,282.077 76.383,260L76.383,180C76.383,157.923 99.779,136.649 123.735,136.649L376.265,136.649C400.221,136.649 423.617,157.923 423.617,180ZM177.66,153.333L127.021,153.333C107.058,153.333 90.851,168.269 90.851,186.667L90.851,253.333C90.851,271.731 107.058,286.667 127.021,286.667L177.66,286.667L177.66,153.333ZM194.774,286.667L293.404,286.667L293.404,153.333L194.774,153.333L194.774,286.667ZM307.872,286.667L355.567,286.667C356.213,286.047 356.79,285.407 357.297,284.747C360.279,281.006 361.771,276.349 361.771,270.776C361.771,270.013 361.667,268.543 361.46,266.367C361.253,264.191 360.549,261.882 359.347,259.439C358.146,256.996 356.489,255.335 354.377,254.458C352.264,253.58 348.64,253.026 343.504,252.797C340.604,252.721 338.533,252.53 337.291,252.224C336.048,251.919 335.054,251.385 334.308,250.621C333.066,249.4 332.444,248.064 332.444,246.613C332.444,245.773 332.631,244.914 333.004,244.036C333.376,243.159 339.279,237.375 350.711,226.687L346.362,226.687C343.214,226.687 339.859,227.222 336.297,228.29C333.977,229.054 332.154,229.436 330.829,229.436C327.764,229.436 325.983,227.832 325.486,224.626C325.486,222.87 325.983,221.572 326.977,220.732C327.971,219.892 330.001,219.053 333.066,218.213C334.971,217.602 336.711,217.144 338.285,216.839C340.936,216.304 345.616,216.037 352.327,216.037C357.214,216.037 360.031,216.056 360.776,216.094C361.522,216.132 362.309,216.342 363.137,216.724C365.209,217.869 366.244,219.625 366.244,221.992C366.244,223.671 365.436,225.676 363.821,228.004C362.205,230.333 359.202,233.634 354.812,237.91C353.486,239.208 352.409,240.276 351.581,241.116C350.753,241.956 350.338,242.414 350.338,242.49C350.338,242.567 350.483,242.624 350.773,242.662C351.063,242.7 351.436,242.777 351.892,242.891C352.347,243.006 352.824,243.101 353.321,243.178C363.345,244.781 369.599,250.927 372.084,261.615C372.913,264.669 373.327,268.028 373.327,271.692C373.327,275.968 372.292,280.357 370.22,284.862C369.942,285.487 369.656,286.089 369.361,286.667L372.979,286.667C392.942,286.667 409.149,271.731 409.149,253.333L409.149,186.667C409.149,168.269 392.942,153.333 372.979,153.333L370.496,153.333C369.012,155.301 367.264,157.541 365.253,160.055L354.904,172.967C349.809,179.376 346.306,183.712 344.396,185.974C341.212,189.618 339.619,191.534 339.619,191.723C339.619,191.786 340.522,191.848 342.326,191.911C344.661,192.037 347.952,192.1 352.197,192.1C356.125,192.1 358.884,192.068 360.476,192.006L360.795,192.006C364.191,191.691 366.367,191.534 367.323,191.534C368.49,191.534 369.499,191.723 370.348,192.1L370.507,192.1C373.054,193.042 374.328,194.299 374.328,195.87C374.222,197.503 372.895,198.791 370.348,199.734C369.286,200.174 366.819,200.457 362.944,200.582C359.07,200.708 352.516,200.802 343.281,200.865C338.505,200.865 334.896,200.849 332.455,200.818C330.013,200.786 328.289,200.739 327.28,200.676C326.272,200.614 325.608,200.519 325.29,200.394C322.318,199.388 320.832,197.975 320.832,196.153C320.832,195.587 320.938,195.1 321.15,194.692C321.363,194.283 322.849,192.383 325.608,188.99C328.368,185.597 330.385,183.146 331.659,181.638C337.072,174.978 340.681,170.485 342.485,168.16C346.519,162.945 349.915,158.673 352.675,155.342C353.245,154.646 353.789,153.976 354.308,153.333L307.872,153.333L307.872,286.667ZM138.62,274.653C137.659,274.653 136.645,274.466 135.578,274.093C133.657,273.44 132.323,272.367 131.576,270.874C130.829,269.381 130.455,267.048 130.455,263.875C130.455,258.836 130.295,254.637 129.975,251.278L129.655,239.66C129.228,226.13 128.908,213.486 128.694,201.729L128.214,180.453L124.532,182.693C123.464,183.159 122.451,183.393 121.49,183.393C120.423,183.393 119.249,183.136 117.968,182.623C116.687,182.11 115.727,181.317 115.086,180.243C114.446,179.17 114.126,178.121 114.126,177.094C114.126,174.761 115.727,172.335 118.929,169.816C120.85,168.229 122.958,166.69 125.252,165.197C127.547,163.704 129.335,162.701 130.615,162.187C131.896,161.674 133.123,161.418 134.297,161.418C138.46,161.418 141.181,163.19 142.462,166.736C142.782,168.136 143.049,177.841 143.263,195.85C143.689,228.323 144.437,250.391 145.504,262.056C145.717,264.015 145.824,265.601 145.824,266.815C145.824,267.654 145.744,268.564 145.584,269.544C145.424,270.524 144.863,271.48 143.903,272.413C142.302,273.906 140.541,274.653 138.62,274.653ZM239.878,268.924C234.874,268.924 231.093,268.902 228.535,268.858C225.977,268.814 224.17,268.748 223.113,268.66C222.056,268.572 221.361,268.44 221.028,268.265C217.914,266.858 216.357,264.879 216.357,262.33C216.357,261.538 216.468,260.857 216.69,260.285C216.913,259.714 218.47,257.054 221.361,252.306C224.253,247.558 226.366,244.129 227.701,242.019C233.372,232.699 237.154,226.412 239.044,223.159C243.27,215.861 246.829,209.882 249.721,205.222C254.948,196.693 258.117,191.022 259.229,188.209C260.675,184.692 261.398,181.834 261.398,179.636C261.398,177.614 260.953,176.251 260.063,175.547C259.73,175.372 258.784,175.284 257.228,175.284C254.781,175.284 251.695,175.789 247.969,176.8C244.243,177.812 241.268,178.933 239.044,180.164C236.041,182.098 234.206,184.384 233.539,187.022C232.427,190.451 230.147,192.341 226.7,192.693L226.199,192.693C224.309,192.693 222.585,192.209 221.028,191.242C219.137,190.011 218.192,188.385 218.192,186.362C218.192,184.78 218.859,182.757 220.194,180.295C224.531,172.558 233.039,167.282 245.717,164.469C249.832,163.59 253.557,163.15 256.894,163.15C260.453,163.15 263.678,163.634 266.569,164.601C273.353,167.414 276.745,172.514 276.745,179.9C276.745,183.944 275.578,188.385 273.242,193.22C271.352,197.265 267.904,203.464 262.899,211.817L252.056,229.885C246.718,238.854 243.048,244.92 241.046,248.086C237.71,253.185 236.041,255.867 236.041,256.131C236.041,256.219 236.987,256.307 238.877,256.395C241.324,256.571 244.772,256.658 249.22,256.658C253.335,256.658 256.227,256.615 257.895,256.527L258.228,256.527C261.787,256.087 264.067,255.867 265.068,255.867C266.291,255.867 267.348,256.131 268.238,256.658L268.404,256.658C271.074,257.977 272.408,259.736 272.408,261.934C272.297,264.22 270.907,266.023 268.238,267.341C267.125,267.957 264.54,268.353 260.48,268.528C256.421,268.704 249.554,268.836 239.878,268.924Z"/>
    </g>
</svg>
